<mxfile host="drawio-plugin" modified="2022-02-24T12:25:13.606Z" agent="5.0 (Macintosh; Intel Mac OS X 12_1_0) AppleWebKit/537.36 (KHTML, like Gecko) Chrome/89.0.4389.114 Safari/537.36" etag="gewdEkXsJxp87WRWOZfX" version="15.5.4" type="embed"><diagram id="UkCOZ_WddbfjBrkvK9fj" name="Page-1"><mxGraphModel dx="1196" dy="781" grid="1" gridSize="10" guides="1" tooltips="1" connect="1" arrows="1" fold="1" page="1" pageScale="1" pageWidth="1100" pageHeight="850" math="0" shadow="0"><root><mxCell id="0"/><mxCell id="1" parent="0"/><mxCell id="ELWWY3sifPibGMFry7iH-1" value="Nacos" style="rounded=0;whiteSpace=wrap;html=1;" parent="1" vertex="1"><mxGeometry x="819.83" y="160" width="120" height="40" as="geometry"/></mxCell><mxCell id="10" style="edgeStyle=orthogonalEdgeStyle;rounded=0;orthogonalLoop=1;jettySize=auto;html=1;exitX=1;exitY=0.5;exitDx=0;exitDy=0;entryX=1;entryY=0.75;entryDx=0;entryDy=0;" parent="1" source="ELWWY3sifPibGMFry7iH-12" target="ELWWY3sifPibGMFry7iH-1" edge="1"><mxGeometry relative="1" as="geometry"/></mxCell><mxCell id="ELWWY3sifPibGMFry7iH-12" value="spring cloud&amp;nbsp;admin" style="rounded=0;whiteSpace=wrap;html=1;" parent="1" vertex="1"><mxGeometry x="819.83" y="280" width="120" height="40" as="geometry"/></mxCell><mxCell id="11" style="edgeStyle=orthogonalEdgeStyle;rounded=0;orthogonalLoop=1;jettySize=auto;html=1;exitX=0.5;exitY=1;exitDx=0;exitDy=0;entryX=0;entryY=0.5;entryDx=0;entryDy=0;" parent="1" source="4" target="ELWWY3sifPibGMFry7iH-1" edge="1"><mxGeometry relative="1" as="geometry"/></mxCell><mxCell id="19" value="/admin/nacos" style="edgeLabel;html=1;align=center;verticalAlign=middle;resizable=0;points=[];" parent="11" vertex="1" connectable="0"><mxGeometry x="0.5573" y="-2" relative="1" as="geometry"><mxPoint x="-29" y="-2" as="offset"/></mxGeometry></mxCell><mxCell id="12" style="edgeStyle=orthogonalEdgeStyle;rounded=0;orthogonalLoop=1;jettySize=auto;html=1;exitX=0.5;exitY=0.5;exitDx=0;exitDy=0;exitPerimeter=0;entryX=0;entryY=0;entryDx=0;entryDy=0;" parent="1" source="7" target="4" edge="1"><mxGeometry relative="1" as="geometry"/></mxCell><mxCell id="13" value="/admin" style="edgeLabel;html=1;align=center;verticalAlign=middle;resizable=0;points=[];" parent="12" vertex="1" connectable="0"><mxGeometry x="0.2726" y="1" relative="1" as="geometry"><mxPoint x="-6" as="offset"/></mxGeometry></mxCell><mxCell id="14" value="/XXX/*&amp;nbsp; (eg: point)" style="edgeStyle=orthogonalEdgeStyle;rounded=0;orthogonalLoop=1;jettySize=auto;html=1;exitX=0.5;exitY=0.5;exitDx=0;exitDy=0;exitPerimeter=0;entryX=1;entryY=0;entryDx=0;entryDy=0;" parent="1" source="7" target="ELWWY3sifPibGMFry7iH-2" edge="1"><mxGeometry x="0.3425" y="10" relative="1" as="geometry"><mxPoint as="offset"/></mxGeometry></mxCell><mxCell id="7" value="Actor" style="shape=umlActor;verticalLabelPosition=bottom;verticalAlign=top;html=1;outlineConnect=0;" parent="1" vertex="1"><mxGeometry x="495" y="10" width="35" height="40" as="geometry"/></mxCell><mxCell id="9" style="edgeStyle=orthogonalEdgeStyle;rounded=0;orthogonalLoop=1;jettySize=auto;html=1;exitX=0.5;exitY=0;exitDx=0;exitDy=0;" parent="1" source="8" target="ELWWY3sifPibGMFry7iH-1" edge="1"><mxGeometry relative="1" as="geometry"/></mxCell><mxCell id="8" value="sentinel deshboard" style="rounded=0;whiteSpace=wrap;html=1;" parent="1" vertex="1"><mxGeometry x="819.83" y="220" width="120" height="40" as="geometry"/></mxCell><mxCell id="15" value="" style="group" parent="1" vertex="1" connectable="0"><mxGeometry x="280" y="80" width="195" height="50" as="geometry"/></mxCell><mxCell id="ELWWY3sifPibGMFry7iH-2" value="GW" style="rounded=0;whiteSpace=wrap;html=1;" parent="15" vertex="1"><mxGeometry width="70" height="40" as="geometry"/></mxCell><mxCell id="2" value="app(eg: point)" style="rounded=0;whiteSpace=wrap;html=1;" parent="15" vertex="1"><mxGeometry x="70" width="90" height="40" as="geometry"/></mxCell><mxCell id="50" value="" style="group" parent="15" vertex="1" connectable="0"><mxGeometry x="35" y="10" width="160" height="40" as="geometry"/></mxCell><mxCell id="51" value="GW" style="rounded=0;whiteSpace=wrap;html=1;" parent="50" vertex="1"><mxGeometry width="70" height="40" as="geometry"/></mxCell><mxCell id="52" value="app(eg: point)" style="rounded=0;whiteSpace=wrap;html=1;" parent="50" vertex="1"><mxGeometry x="70" width="90" height="40" as="geometry"/></mxCell><mxCell id="16" value="" style="group" parent="1" vertex="1" connectable="0"><mxGeometry x="590" y="80" width="140" height="40" as="geometry"/></mxCell><mxCell id="3" value="admin app" style="rounded=0;whiteSpace=wrap;html=1;" parent="16" vertex="1"><mxGeometry width="70" height="40" as="geometry"/></mxCell><mxCell id="4" value="GW" style="rounded=0;whiteSpace=wrap;html=1;" parent="16" vertex="1"><mxGeometry x="70" width="70" height="40" as="geometry"/></mxCell><mxCell id="20" style="edgeStyle=orthogonalEdgeStyle;rounded=0;orthogonalLoop=1;jettySize=auto;html=1;exitX=0.5;exitY=1;exitDx=0;exitDy=0;entryX=0;entryY=0.5;entryDx=0;entryDy=0;" parent="1" source="4" target="8" edge="1"><mxGeometry relative="1" as="geometry"/></mxCell><mxCell id="21" value="/admin/sentinel" style="edgeLabel;html=1;align=center;verticalAlign=middle;resizable=0;points=[];" parent="20" vertex="1" connectable="0"><mxGeometry x="0.7398" y="-2" relative="1" as="geometry"><mxPoint x="-37" y="-2" as="offset"/></mxGeometry></mxCell><mxCell id="22" style="edgeStyle=orthogonalEdgeStyle;rounded=0;orthogonalLoop=1;jettySize=auto;html=1;exitX=0.5;exitY=1;exitDx=0;exitDy=0;entryX=0;entryY=0.5;entryDx=0;entryDy=0;" parent="1" source="4" target="ELWWY3sifPibGMFry7iH-12" edge="1"><mxGeometry relative="1" as="geometry"/></mxCell><mxCell id="23" value="/admin/cloud" style="edgeLabel;html=1;align=center;verticalAlign=middle;resizable=0;points=[];" parent="22" vertex="1" connectable="0"><mxGeometry x="0.4466" y="-1" relative="1" as="geometry"><mxPoint x="18" y="-1" as="offset"/></mxGeometry></mxCell><mxCell id="25" style="edgeStyle=orthogonalEdgeStyle;rounded=0;orthogonalLoop=1;jettySize=auto;html=1;exitX=1;exitY=0.5;exitDx=0;exitDy=0;entryX=1;entryY=0.25;entryDx=0;entryDy=0;" parent="1" source="24" target="ELWWY3sifPibGMFry7iH-1" edge="1"><mxGeometry relative="1" as="geometry"><Array as="points"><mxPoint x="969.83" y="352"/><mxPoint x="969.83" y="170"/></Array></mxGeometry></mxCell><mxCell id="24" value="durid admin" style="rounded=0;whiteSpace=wrap;html=1;" parent="1" vertex="1"><mxGeometry x="819.83" y="334" width="120" height="35" as="geometry"/></mxCell><mxCell id="26" style="edgeStyle=orthogonalEdgeStyle;rounded=0;orthogonalLoop=1;jettySize=auto;html=1;exitX=0.5;exitY=1;exitDx=0;exitDy=0;entryX=0;entryY=0.5;entryDx=0;entryDy=0;" parent="1" source="4" target="24" edge="1"><mxGeometry relative="1" as="geometry"/></mxCell><mxCell id="27" value="/admin/durid" style="edgeLabel;html=1;align=center;verticalAlign=middle;resizable=0;points=[];" parent="26" vertex="1" connectable="0"><mxGeometry x="0.5191" y="-2" relative="1" as="geometry"><mxPoint x="18" y="-2" as="offset"/></mxGeometry></mxCell><mxCell id="30" value="" style="edgeStyle=orthogonalEdgeStyle;rounded=0;orthogonalLoop=1;jettySize=auto;html=1;exitX=0.5;exitY=1;exitDx=0;exitDy=0;entryX=0.25;entryY=0;entryDx=0;entryDy=0;fillColor=#0050ef;strokeColor=#001DBC;" parent="1" source="ELWWY3sifPibGMFry7iH-2" target="34" edge="1"><mxGeometry relative="1" as="geometry"><mxPoint x="210" y="210" as="targetPoint"/></mxGeometry></mxCell><mxCell id="39" value="" style="group;container=1;" parent="1" vertex="1" connectable="0"><mxGeometry x="200" y="240" width="430" height="104" as="geometry"><mxRectangle x="200" y="240" width="50" height="40" as="alternateBounds"/></mxGeometry></mxCell><mxCell id="38" value="&lt;pre style=&quot;color: rgb(248 , 248 , 242) ; font-family: &amp;#34;jetbrains mono&amp;#34; , monospace ; font-size: 9pt&quot;&gt;&lt;span style=&quot;background-color: rgb(40 , 42 , 54)&quot;&gt;components&lt;/span&gt;&lt;/pre&gt;" style="text;html=1;strokeColor=none;fillColor=none;align=center;verticalAlign=middle;whiteSpace=wrap;rounded=0;" parent="39" vertex="1"><mxGeometry x="230" y="70" width="60" height="30" as="geometry"/></mxCell><mxCell id="37" value="" style="group" parent="39" vertex="1" connectable="0"><mxGeometry x="70" width="360" height="70" as="geometry"/></mxCell><mxCell id="34" value="" style="rounded=0;whiteSpace=wrap;html=1;" parent="37" vertex="1"><mxGeometry width="360" height="70" as="geometry"/></mxCell><mxCell id="28" value="Stars&lt;br&gt;Org/Department/User&lt;br&gt;Role/RoleGroup" style="rounded=0;whiteSpace=wrap;html=1;" parent="37" vertex="1"><mxGeometry x="10" y="10" width="140" height="50" as="geometry"/></mxCell><mxCell id="29" value="License" style="rounded=0;whiteSpace=wrap;html=1;" parent="37" vertex="1"><mxGeometry x="160" y="10" width="80" height="50" as="geometry"/></mxCell><mxCell id="32" value="Pipline Cloud&lt;br&gt;workflow...." style="rounded=0;whiteSpace=wrap;html=1;" parent="37" vertex="1"><mxGeometry x="250" y="10" width="100" height="50" as="geometry"/></mxCell><mxCell id="40" style="edgeStyle=orthogonalEdgeStyle;rounded=0;orthogonalLoop=1;jettySize=auto;html=1;entryX=0.75;entryY=0;entryDx=0;entryDy=0;" parent="1" target="34" edge="1"><mxGeometry relative="1" as="geometry"><mxPoint x="395" y="130" as="sourcePoint"/><Array as="points"><mxPoint x="395" y="200"/><mxPoint x="540" y="200"/></Array></mxGeometry></mxCell><mxCell id="41" style="edgeStyle=orthogonalEdgeStyle;rounded=0;orthogonalLoop=1;jettySize=auto;html=1;exitX=0.5;exitY=1;exitDx=0;exitDy=0;" parent="1" source="3" edge="1"><mxGeometry relative="1" as="geometry"><mxPoint x="540" y="240" as="targetPoint"/><Array as="points"><mxPoint x="625" y="200"/><mxPoint x="540" y="200"/></Array></mxGeometry></mxCell><mxCell id="43" value="dubbo" style="edgeLabel;html=1;align=center;verticalAlign=middle;resizable=0;points=[];" parent="41" vertex="1" connectable="0"><mxGeometry x="0.8358" y="1" relative="1" as="geometry"><mxPoint as="offset"/></mxGeometry></mxCell><mxCell id="42" style="edgeStyle=orthogonalEdgeStyle;rounded=0;orthogonalLoop=1;jettySize=auto;html=1;exitX=0.25;exitY=1;exitDx=0;exitDy=0;entryX=0.25;entryY=0;entryDx=0;entryDy=0;fillColor=#0050ef;strokeColor=#001DBC;" parent="1" source="4" target="34" edge="1"><mxGeometry relative="1" as="geometry"><Array as="points"><mxPoint x="678" y="180"/><mxPoint x="360" y="180"/></Array></mxGeometry></mxCell><mxCell id="44" value="http" style="edgeLabel;html=1;align=center;verticalAlign=middle;resizable=0;points=[];" parent="42" vertex="1" connectable="0"><mxGeometry x="0.8358" relative="1" as="geometry"><mxPoint as="offset"/></mxGeometry></mxCell><mxCell id="45" style="edgeStyle=orthogonalEdgeStyle;rounded=0;orthogonalLoop=1;jettySize=auto;html=1;exitX=1;exitY=0.5;exitDx=0;exitDy=0;entryX=0;entryY=0.75;entryDx=0;entryDy=0;" parent="1" source="34" target="ELWWY3sifPibGMFry7iH-1" edge="1"><mxGeometry relative="1" as="geometry"><Array as="points"><mxPoint x="660" y="275"/><mxPoint x="660" y="190"/></Array></mxGeometry></mxCell><mxCell id="59" value="" style="group" vertex="1" connectable="0" parent="1"><mxGeometry x="300" y="491" width="550" height="150" as="geometry"/></mxCell><mxCell id="46" value="" style="rounded=0;whiteSpace=wrap;html=1;" parent="59" vertex="1"><mxGeometry width="550" height="150" as="geometry"/></mxCell><mxCell id="47" value="Scheduler&lt;br&gt;定义/调度" style="rounded=0;whiteSpace=wrap;html=1;" parent="59" vertex="1"><mxGeometry x="10" y="45" width="140" height="45" as="geometry"/></mxCell><mxCell id="48" value="files&lt;br&gt;object storage / block storage" style="rounded=0;whiteSpace=wrap;html=1;" parent="59" vertex="1"><mxGeometry x="490" y="100" width="140" height="40" as="geometry"/></mxCell><mxCell id="49" value="logs&lt;br&gt;日志模块" style="rounded=0;whiteSpace=wrap;html=1;" parent="59" vertex="1"><mxGeometry x="360" y="100" width="120" height="40" as="geometry"/></mxCell><mxCell id="53" value="统计分析模块" style="rounded=0;whiteSpace=wrap;html=1;" parent="59" vertex="1"><mxGeometry x="430" y="45" width="110" height="45" as="geometry"/></mxCell><mxCell id="54" value="通知模块&lt;br&gt;(回调/消息/App)" style="rounded=0;whiteSpace=wrap;html=1;" parent="59" vertex="1"><mxGeometry x="200" y="100" width="150" height="40" as="geometry"/></mxCell><mxCell id="55" value="matchine&lt;br&gt;运算资源模块" style="rounded=0;whiteSpace=wrap;html=1;" vertex="1" parent="59"><mxGeometry x="10" y="100" width="180" height="40" as="geometry"/></mxCell><mxCell id="56" value="管理前端（内部）" style="rounded=0;whiteSpace=wrap;html=1;" vertex="1" parent="59"><mxGeometry x="160" y="45" width="130" height="45" as="geometry"/></mxCell><mxCell id="57" value="客户前端（外部）" style="rounded=0;whiteSpace=wrap;html=1;" vertex="1" parent="59"><mxGeometry x="300" y="45" width="122" height="45" as="geometry"/></mxCell><mxCell id="60" value="pipline cloud/workflow/调度中台 ......&amp;nbsp;" style="text;html=1;strokeColor=none;fillColor=none;align=center;verticalAlign=middle;whiteSpace=wrap;rounded=0;" vertex="1" parent="59"><mxGeometry x="20" y="10" width="330" height="30" as="geometry"/></mxCell><mxCell id="74" value="Tags Server" style="rounded=0;whiteSpace=wrap;html=1;" vertex="1" parent="1"><mxGeometry x="789.83" y="652" width="140.17" height="40" as="geometry"/></mxCell><mxCell id="77" value="" style="html=1;shadow=0;dashed=0;align=center;verticalAlign=middle;shape=mxgraph.arrows2.stylisedArrow;dy=0.6;dx=40;notch=15;feather=0.4;direction=north;" vertex="1" parent="1"><mxGeometry x="560" y="290" width="30" height="144" as="geometry"/></mxCell><mxCell id="78" value="数据转换服务（新版和老版数据兼容）" style="rounded=0;whiteSpace=wrap;html=1;" vertex="1" parent="1"><mxGeometry x="300" y="440" width="240" height="40" as="geometry"/></mxCell><mxCell id="80" value="Web API" style="rounded=0;whiteSpace=wrap;html=1;" vertex="1" parent="1"><mxGeometry x="570" y="441" width="130" height="39" as="geometry"/></mxCell><mxCell id="81" value="Dubbo API" style="rounded=0;whiteSpace=wrap;html=1;" vertex="1" parent="1"><mxGeometry x="710" y="441" width="140" height="39" as="geometry"/></mxCell></root></mxGraphModel></diagram></mxfile>